<svg xmlns="http://www.w3.org/2000/svg" width="627" height="627" fill="none" viewBox="0 0 627 627">
  <path fill="url(#a)" fill-rule="evenodd" d="M627 313.584c0 83.69-32.602 162.506-91.756 221.66C476.09 594.398 397.274 627 313.584 627c-83.858 0-162.506-32.602-221.66-91.756C32.602 476.09 0 397.274 0 313.584c0-83.858 32.602-162.506 91.924-221.66C151.078 32.602 229.726 0 313.584 0c83.69 0 162.506 32.602 221.66 91.924C594.398 151.078 627 229.726 627 313.584ZM495.752 415.759a247.562 247.562 0 0 1-5.21-5.377c-31.089-32.266-59.154-63.02-59.154-83.186 0-10.251-.336-20.67-1.344-30.753-4.034 3.529-8.907 8.234-11.596 13.444-1.008 2.016-3.025 3.193-5.209 3.193-2.185 0-4.034-1.345-5.042-3.361-17.813-40.837-65.372-48.567-90.916-52.768-3.697-.673-6.722-1.177-9.411-1.681-16.469-3.361-34.954-11.763-46.886-19.662 1.008 8.571 4.873 16.133 4.873 16.301.673 1.345.841 2.857.336 4.369-.504 1.513-1.512 2.689-3.024 3.361-13.781 6.218-49.576 27.393-50.416 50.584 2.689 6.722 13.276 22.183 28.905 38.316a7.342 7.342 0 0 1 1.512 1.68c17.646 17.982 41.005 36.467 65.709 44.366 37.643 12.1 62.011 32.098 77.976 45.374 5.377 4.537 9.746 8.066 12.939 9.915l1.849 1.176c10.755 6.05 25.712 14.789 41.341 7.73-8.739-1.68-19.158-5.377-26.889-12.94-25.375-25.543-45.037-35.458-77.639-51.759a1549.29 1549.29 0 0 1-13.276-6.722c-2.857-1.513-4.034-4.874-2.521-7.731 1.344-2.689 4.873-3.865 7.562-2.353 4.706 2.353 9.131 4.594 13.276 6.723 32.434 16.132 53.945 27.056 80.665 53.776 7.058 7.058 18.654 9.915 26.72 10.923-2.353-12.435-1.512-24.199-.672-30.081-39.156-27.224-54.617-61.675-66.044-86.882-5.378-11.596-9.915-21.679-15.125-26.889-10.083-10.251-35.291-21.174-54.113-28.4a40.346 40.346 0 0 1 2.521 4.369 74.054 74.054 0 0 1 2.689 5.21c6.218 13.108 14.116 29.409 37.476 27.728 3.024-.168 5.713 2.185 6.049 5.378.168 3.025-2.184 5.713-5.377 6.05-30.922 2.016-41.845-20.671-48.399-34.283-.84-1.68-1.681-3.361-2.521-4.873-5.882-11.26-16.805-18.486-16.805-18.486-2.521-1.513-3.361-4.537-2.017-7.226 1.177-2.521 4.034-3.865 6.722-2.857 2.689.84 62.852 20.334 81.841 39.324 6.722 6.722 11.428 17.141 17.31 30.249 11.091 24.368 26.048 57.474 63.523 83.186 5.378-.337 20.166-.505 37.812 5.545Zm120.325-102.175c0-146.877-105.369-269.723-244.347-296.947 1.848 27.56-12.604 82.681-22.351 119.989l-.672 2.016c50.415-61.674 98.478-79.32 100.663-80.16h.168c.224-.112.504-.168.84-.168h.168a3.171 3.171 0 0 1 1.008-.168h.168c.224.112.504.168.841.168h.168c.336.112.616.224.84.336l.168.168c.336.112.616.224.84.336 0 .112.056.168.168.168v.168c.224.112.448.28.672.504v.168h.168a2.1 2.1 0 0 1 .505.84c.224.337.392.617.504.84v.337c.112.336.224.616.336.84v1.513c-.504 3.865-11.932 96.965-49.911 154.103 9.915 13.108 16.469 23.191 17.309 24.703 16.133 23.864 18.486 54.449 18.486 83.858 0 17.309 36.299 55.121 55.961 75.287 6.89 7.058 12.772 13.276 16.301 17.478 2.689 3.193 3.865 6.554 3.865 10.083 0 .336-.056.616-.168.84a12.949 12.949 0 0 1-1.176 4.537c-7.227 15.461-44.366 23.864-56.802 24.872-9.915 9.243-20.166 12.436-29.577 12.436-14.62 0-27.392-7.395-35.123-11.932l-2.016-1.008c-4.034-2.353-8.571-6.218-14.453-11.092-8.907-7.394-20.67-16.973-35.795-26.048-63.523 48.231-31.257 178.471-27.392 193.428 165.531-1.681 299.636-136.794 299.636-302.493ZM290.561 615.236c-8.515-4.817-16.693-10.363-24.536-16.637-24.871-15.124-46.886-34.45-65.708-56.969l-.168-.168c-63.859-58.818-96.797-150.574-83.689-233.76 9.915-63.523 44.365-112.258 97.133-137.298a319.914 319.914 0 0 1 4.706-13.444c18.654-49.407 56.297-112.93 131.752-143.684a302.072 302.072 0 0 0-36.467-2.185c-166.875 0-302.493 135.618-302.493 302.493 0 158.977 123.35 289.721 279.47 301.652ZM222.5 549.528a210.943 210.943 0 0 1-3.361-5.209c-20.67-33.275-36.299-75.287-45.038-121.67-15.292-81.168-8.402-165.026 15.461-216.786-28.065 32.938-44.87 83.354-45.206 140.659-.336 63.692 20.839 143.852 78.144 203.006Zm-89.571-203.006c.336-45.878 10.755-87.555 29.073-120.493-17.646 22.855-29.409 51.088-34.451 83.522-7.898 50.751 2.185 104.696 26.216 151.918-13.78-36.299-21.006-75.455-20.838-114.947Zm160.825 257.455c-60.162-91.588-61.003-195.276-61.003-248.38-16.637-17.646-28.232-34.451-30.921-42.181-.112-.224-.168-.392-.168-.504-.112-.112-.168-.224-.168-.336-6.554-24.368-6.386-67.389 4.033-113.099-27.056 47.223-36.131 136.794-20.334 221.156 16.469 86.714 55.457 151.918 108.561 183.344ZM325.18 413.07c-6.218-2.856-12.772-5.377-19.83-7.73-22.351-7.058-43.694-22.351-61.171-38.652.168 27.057 1.344 63.86 9.243 104.192 10.755-22.687 31.593-48.903 71.758-57.81Zm103.015-129.399c-2.521-12.436-6.554-24.032-13.276-34.115l-.168-.168c-.336-.504-39.492-62.179-76.463-79.32-22.183 23.023-57.642 41.173-72.431 45.878-.56.224-1.12.336-1.68.336-1.344 0-2.521-.504-3.529-1.344-1.513-1.008-2.353-2.857-2.185-4.706 3.193-46.046 57.138-138.306 90.412-184.016-68.061 29.913-102.68 88.731-119.989 134.609-17.309 46.046-22.687 94.277-19.998 127.215 11.932-17.981 34.451-31.089 44.534-36.299-2.521-6.554-5.714-17.813-2.689-28.569.504-1.848 2.016-3.361 3.865-3.865 2.017-.672 4.033 0 5.546 1.345 6.722 6.89 29.577 19.325 50.079 23.527 2.353.504 5.378 1.008 8.907 1.512 24.031 4.033 72.094 11.764 94.949 50.584 4.873-5.714 10.587-10.083 14.116-12.604Zm-28.737-74.447c26.048-40.836 38.652-100.831 43.694-129.4-21.511 23.192-29.577 45.878-36.804 66.213-6.049 17.309-11.427 32.434-23.695 44.197 6.05 6.386 11.764 12.772 16.805 18.99Zm24.536-124.19c-20.67 13.612-49.743 37.307-78.144 76.127 9.747 5.042 19.662 12.604 28.737 21.175 10.419-10.083 15.292-23.527 21.174-40.164 5.882-16.806 12.94-36.636 28.233-57.138Zm-63.692-55.289c-31.929 42.853-80.496 126.711-89.235 172.085 16.469-7.226 43.525-22.855 60.499-41.173 1.176-5.377 3.529-14.62 6.722-27.056 7.73-29.409 19.83-75.455 22.014-103.856Zm-35.459 394.921c-40.836 10.251-58.986 40.5-67.052 66.212 8.066 33.106 21.006 67.893 41.677 100.999-2.689-14.788-5.21-33.946-5.882-54.785-1.681-49.575 9.243-88.059 31.257-112.426Zm136.458-3.361c-.672 5.882-1.176 16.805 1.177 27.56 12.604-1.68 36.971-8.738 43.693-16.469-18.99-9.915-36.803-11.091-44.87-11.091Z" clip-rule="evenodd"/>
  <defs>
    <linearGradient id="a" x1="-313.466" x2="313.54" y1="313.547" y2="-313.46" gradientUnits="userSpaceOnUse">
      <stop stop-color="#EA5B0C"/>
      <stop offset="1" stop-color="#F9B233"/>
    </linearGradient>
  </defs>
</svg>
