<svg xmlns="http://www.w3.org/2000/svg" width="1030" height="188" fill="none" viewBox="0 0 1030 188">
  <path fill="#fff" d="M937.309 80.701c10.85-17.858 26.448-26.787 46.793-26.787 21.018 0 35.038 8.816 42.048 26.448 2.48 6.556 3.73 14.129 3.73 22.718v72.564c0 3.164-1.13 5.538-3.39 7.12-2.04 1.583-4.3 2.374-6.78 2.374-2.72 0-5.2-.791-7.46-2.374-2.04-1.808-3.06-4.182-3.06-7.12v-73.92c0-10.398-2.94-18.536-8.81-24.414-5.428-4.973-12.435-7.46-21.026-7.46-17.18 0-28.821 7.008-34.925 21.024-2.486 5.199-3.73 11.528-3.73 18.988v65.782c0 3.164-1.13 5.538-3.39 7.12-2.035 1.583-4.295 2.374-6.782 2.374-2.713 0-5.199-.791-7.46-2.374-2.034-1.808-3.052-4.182-3.052-7.12v-73.92c0-10.398-2.825-18.536-8.477-24.414-5.425-4.973-11.641-7.46-18.649-7.46-7.008 0-12.772.792-17.293 2.374-4.521 1.582-8.59 4.182-12.207 7.799-7.234 7.234-11.077 17.406-11.529 30.517v65.104c0 3.164-1.13 5.538-3.391 7.12-2.26 1.583-4.634 2.374-7.12 2.374-2.487 0-4.86-.791-7.121-2.374-2.26-1.808-3.391-4.182-3.391-7.12V66.121c0-2.939 1.131-5.312 3.391-7.121 2.261-1.808 4.408-2.713 6.443-2.713 2.034 0 3.616.34 4.747 1.018A13.267 13.267 0 0 1 848.469 59c2.261 1.809 3.391 4.069 3.391 6.782v12.207c3.165-7.686 8.929-13.677 17.293-17.972 7.46-4.069 16.163-6.103 26.11-6.103 15.371 0 27.126 4.86 35.264 14.58 2.713 3.617 4.973 7.686 6.782 12.207Zm-145.448 94.943c0 3.164-1.243 5.538-3.73 7.12-2.261 1.583-4.295 2.374-6.104 2.374a26.87 26.87 0 0 1-4.408-.339 7.154 7.154 0 0 1-3.39-2.374c-2.261-1.582-3.391-3.843-3.391-6.781v-11.868c-5.425 11.981-15.372 19.44-29.839 22.379-4.521 1.13-9.381 1.696-14.581 1.696-5.199 0-10.624-.905-16.276-2.713-5.651-1.809-10.511-4.747-14.58-8.816-9.042-8.59-13.563-21.475-13.563-38.655V66.46c0-3.165 1.017-5.652 3.051-7.46 2.035-1.808 4.409-2.713 7.121-2.713 2.713 0 5.086.905 7.121 2.713 2.034 1.808 3.052 4.295 3.052 7.46v72.902c0 12.207 2.486 20.684 7.459 25.431 4.974 4.747 12.433 7.121 22.38 7.121 16.728 0 28.256-6.782 34.586-20.345 2.486-4.747 3.843-10.172 4.069-16.276V66.46c0-3.165 1.13-5.652 3.391-7.46 2.26-1.808 4.747-2.713 7.459-2.713 2.713 0 5.087.905 7.121 2.713 2.035 1.808 3.052 4.295 3.052 7.46v109.184ZM650.26 116.983c0 4.747-2.712 7.347-8.138 7.799h-92.908c.905 23.057 9.947 37.977 27.127 44.758 4.747 1.583 10.172 2.374 16.276 2.374 12.659 0 25.544-4.634 38.655-13.902 4.069-2.261 7.46-2.035 10.172.678 1.357 1.356 1.809 2.712 1.357 4.069 0 3.164-.792 5.425-2.374 6.781-12.433 12.433-28.822 18.537-49.167 18.311-18.536 0-33.456-5.991-44.758-17.972-12.659-12.433-18.989-28.822-18.989-49.166 0-18.763 5.199-34.247 15.598-46.454 10.85-13.564 26.222-20.345 46.115-20.345s35.038 5.99 45.437 17.971c9.946 10.85 15.145 25.883 15.597 45.098Zm-20.005-6.104c-.679-12.207-4.635-22.266-11.868-30.178-6.782-7.233-16.502-10.85-29.161-10.85-10.851 0-20.119 4.069-27.805 12.207-7.007 8.137-10.85 17.745-11.529 28.821h80.363Zm-165.87-32.89c5.425-16.05 17.293-24.075 35.603-24.075 3.391 0 5.877 1.017 7.46 3.051 1.808 1.809 2.712 3.843 2.712 6.104 0 2.034-.904 4.069-2.712 6.103-1.583 1.809-4.634 2.713-9.155 2.713-4.521 0-9.042.904-13.564 2.713-4.521 1.808-8.251 4.408-11.189 7.799-6.104 7.46-9.155 17.293-9.155 29.5v63.747c0 3.164-1.131 5.538-3.391 7.12-2.261 1.583-4.295 2.374-6.104 2.374-1.808 0-3.277-.113-4.408-.339-1.13-.452-2.26-1.243-3.39-2.374-2.035-1.356-3.052-3.617-3.052-6.781V66.46c0-2.939 1.017-5.312 3.052-7.12 2.034-2.035 4.521-3.053 7.459-3.053 3.165 0 5.539 1.018 7.121 3.052 1.808 1.809 2.713 4.182 2.713 7.12v11.53Zm-93.847 28.821c4.747 0 9.494.113 14.241.339v-10.85c0-17.632-9.833-26.448-29.5-26.448-8.816 0-15.258.79-19.327 2.373-7.234 2.713-12.433 5.086-15.598 7.12-3.165 1.81-5.651 2.714-7.46 2.714-1.808 0-3.503-.679-5.086-2.035-1.582-1.356-2.373-3.165-2.373-5.425 0-1.809 1.017-3.617 3.051-5.426C319.111 59 334.822 53.914 355.619 53.914c23.961 0 39.333 8.025 46.114 24.075 2.261 5.65 3.391 12.206 3.391 19.666l-.678 78.328c0 2.938-1.017 5.199-3.052 6.781-2.034 1.583-4.295 2.374-6.781 2.374-2.487 0-4.747-.678-6.782-2.035-2.034-1.356-3.052-3.616-3.052-6.781v-12.207c-5.425 11.755-15.145 19.101-29.16 22.04-4.295 1.13-9.156 1.696-14.581 1.696-5.425 0-10.85-.792-16.276-2.374-5.199-1.582-9.833-4.069-13.902-7.46-8.364-7.007-12.546-16.502-12.546-28.482 0-28.483 24.075-42.725 72.224-42.725Zm14.241 15.259c-3.616.452-7.798.678-12.546.678-4.747 0-9.607.113-14.58.339-4.973 0-9.72.565-14.241 1.696-4.521.904-8.59 2.373-12.207 4.408-7.686 4.069-11.755 10.737-12.207 20.005 0 7.234 2.939 12.885 8.816 16.954 4.521 3.617 10.964 5.539 19.328 5.765 10.172 0 18.988-3.278 26.448-9.834 6.781-6.329 10.511-15.823 11.189-28.482v-11.529Zm-135.953-20.345c0-10.398-2.939-18.536-8.816-24.414-5.199-4.973-11.303-7.46-18.31-7.46-6.782 0-12.546.792-17.293 2.374-4.748 1.583-8.93 4.182-12.546 7.8-7.686 7.233-11.529 17.518-11.529 30.855v64.765c0 3.164-1.13 5.538-3.391 7.12-2.26 1.583-4.747 2.374-7.46 2.374-2.712 0-4.973-.791-6.781-2.374-1.809-1.808-2.713-4.182-2.713-7.12V10.173c0-3.165 1.13-5.539 3.391-7.121 2.26-1.583 4.521-2.374 6.781-2.374 2.713 0 5.087.791 7.121 2.374 2.035 1.356 3.052 3.73 3.052 7.12v68.156c3.165-7.912 9.042-14.016 17.632-18.31 7.912-4.07 15.711-6.104 23.397-6.104 7.911 0 14.58 1.017 20.005 3.052 5.426 1.808 10.399 4.52 14.92 8.137 9.042 8.59 13.563 21.25 13.563 37.978v72.563c0 3.164-1.243 5.538-3.73 7.12-2.26 1.583-4.634 2.374-7.12 2.374-2.713 0-5.087-.791-7.121-2.374-2.035-1.808-3.052-4.182-3.052-7.12v-73.92Zm-226.108 2.713v69.511c0 5.426-2.486 8.929-7.46 10.512-1.356.452-3.051.678-5.086.678-2.034 0-4.295-.904-6.781-2.713C1.13 180.617 0 177.791 0 173.948V11.528c0-4.52 2.374-8.024 7.12-10.51C8.478.338 10.06 0 11.869 0h46.115c38.429 0 61.825 11.755 70.189 35.264 2.035 5.426 3.052 11.19 3.052 17.293 0 6.104-.904 11.755-2.712 16.954-1.809 5.2-4.409 9.834-7.799 13.903-3.391 4.069-7.46 7.346-12.207 9.833-4.747 2.487-9.834 4.634-15.259 6.443-10.624 3.164-22.718 4.747-36.282 4.747H22.718Zm38.317-18.31c14.693 0 25.544-2.487 32.551-7.46 9.268-5.878 13.903-14.807 13.903-26.788 0-11.528-4.635-20.231-13.903-26.109-7.007-4.521-17.745-7.008-32.212-7.46H22.718v67.816h38.317Z"/>
</svg>
