<svg xmlns="http://www.w3.org/2000/svg" width="1452" height="328" fill="none" viewBox="0 0 1452 328">
  <path fill="url(#a)" fill-rule="evenodd" d="M328 164.044c0 43.78-17.055 85.011-48 115.956-30.945 30.945-72.176 48-115.956 48-43.868 0-85.011-17.055-115.956-48C17.055 249.055 0 207.824 0 164.044c0-43.868 17.055-85.011 48.088-115.956C79.033 17.055 120.176 0 164.044 0 207.824 0 249.055 17.055 280 48.088c30.945 30.945 48 72.088 48 115.956Zm-68.659 53.45a128.609 128.609 0 0 1-2.726-2.813c-16.263-16.879-30.945-32.967-30.945-43.516 0-5.363-.176-10.813-.703-16.088-2.11 1.846-4.659 4.308-6.066 7.033a3.017 3.017 0 0 1-2.725 1.67c-1.143 0-2.11-.703-2.638-1.758-9.318-21.363-34.197-25.407-47.56-27.604-1.934-.352-3.516-.616-4.923-.88-8.615-1.758-18.286-6.153-24.528-10.285.528 4.483 2.55 8.439 2.55 8.527.352.704.439 1.495.176 2.286-.264.791-.791 1.406-1.583 1.758-7.208 3.253-25.934 14.33-26.373 26.462 1.406 3.516 6.945 11.604 15.121 20.044.293.234.556.527.791.879 9.231 9.406 21.45 19.077 34.373 23.209 19.693 6.329 32.44 16.791 40.792 23.736 2.813 2.373 5.099 4.22 6.769 5.187l.967.615c5.626 3.165 13.45 7.736 21.626 4.044-4.571-.879-10.022-2.813-14.066-6.769-13.274-13.363-23.56-18.55-40.615-27.077a812.069 812.069 0 0 1-6.945-3.517c-1.495-.791-2.11-2.549-1.319-4.044.704-1.406 2.55-2.022 3.956-1.23a710.353 710.353 0 0 1 6.945 3.516c16.967 8.44 28.22 14.154 42.198 28.132 3.692 3.692 9.758 5.187 13.978 5.714-1.231-6.505-.791-12.659-.352-15.736-20.483-14.242-28.571-32.264-34.549-45.451-2.813-6.065-5.187-11.34-7.912-14.065-5.275-5.363-18.462-11.077-28.308-14.858.469.704.909 1.466 1.319 2.286.469.821.938 1.729 1.407 2.725 3.252 6.857 7.384 15.385 19.604 14.506 1.582-.088 2.989 1.143 3.165 2.813.088 1.582-1.143 2.989-2.813 3.165-16.176 1.055-21.891-10.813-25.319-17.934-.44-.879-.879-1.758-1.319-2.55-3.077-5.89-8.791-9.67-8.791-9.67-1.319-.791-1.758-2.374-1.055-3.78.615-1.319 2.11-2.022 3.517-1.495 1.406.44 32.879 10.638 42.813 20.572 3.516 3.516 5.978 8.967 9.055 15.824 5.802 12.747 13.626 30.066 33.23 43.516 2.814-.175 10.55-.263 19.781 2.901Zm62.945-53.45c0-76.835-55.121-141.099-127.824-155.34.967 14.417-6.594 43.252-11.693 62.768l-.351 1.056c26.373-32.264 51.516-41.495 52.659-41.935h.088a.978.978 0 0 1 .439-.087h.088c.176-.06.352-.088.528-.088h.088a.975.975 0 0 0 .439.088h.088c.176.058.322.117.44.175l.088.088c.175.059.322.117.439.176 0 .059.029.088.088.088v.088c.117.059.235.146.352.264v.087h.088c.117.118.205.264.263.44.118.176.206.322.264.44v.176c.059.175.117.322.176.439v.791c-.264 2.022-6.242 50.726-26.11 80.616 5.187 6.857 8.615 12.131 9.055 12.923 8.44 12.483 9.67 28.483 9.67 43.868 0 9.055 18.989 28.835 29.275 39.384 3.604 3.693 6.681 6.945 8.528 9.143 1.406 1.671 2.022 3.429 2.022 5.275a.99.99 0 0 1-.088.44 6.775 6.775 0 0 1-.616 2.373c-3.78 8.088-23.209 12.484-29.714 13.011-5.187 4.835-10.55 6.506-15.473 6.506-7.648 0-14.329-3.868-18.373-6.242l-1.055-.528c-2.11-1.23-4.484-3.252-7.561-5.802-4.659-3.868-10.813-8.879-18.725-13.626-33.231 25.231-16.352 93.363-14.33 101.187 86.594-.879 156.748-71.561 156.748-158.242ZM152 321.846a96.935 96.935 0 0 1-12.835-8.703c-13.011-7.912-24.528-18.022-34.374-29.802l-.088-.088c-33.406-30.77-50.637-78.77-43.78-122.286 5.187-33.231 23.209-58.725 50.813-71.824a167.57 167.57 0 0 1 2.462-7.033c9.758-25.846 29.45-59.077 68.923-75.165a158.032 158.032 0 0 0-19.077-1.143C76.747 5.802 5.802 76.747 5.802 164.044c0 83.165 64.528 151.56 146.198 157.802Zm-35.604-34.374a109.58 109.58 0 0 1-1.759-2.725c-10.813-17.406-18.989-39.384-23.56-63.648-8-42.462-4.396-86.33 8.088-113.407-14.681 17.231-23.473 43.605-23.649 73.583-.175 33.318 10.902 75.252 40.88 106.197ZM69.538 181.275c.176-24 5.627-45.803 15.21-63.033-9.232 11.956-15.385 26.725-18.023 43.692-4.132 26.549 1.143 54.769 13.715 79.473a167.883 167.883 0 0 1-10.902-60.132Zm84.132 134.681c-31.472-47.912-31.912-102.154-31.912-129.934-8.703-9.231-14.769-18.022-16.176-22.066a.678.678 0 0 1-.087-.264c-.059-.058-.088-.117-.088-.176-3.429-12.747-3.341-35.252 2.109-59.164-14.153 24.703-18.9 71.56-10.637 115.692 8.615 45.363 29.011 79.472 56.791 95.912Zm16.44-99.868c-3.253-1.495-6.681-2.813-10.374-4.044-11.692-3.692-22.857-11.692-32-20.22.088 14.154.704 33.407 4.835 54.506 5.627-11.868 16.528-25.583 37.539-30.242ZM224 148.396c-1.319-6.506-3.429-12.572-6.945-17.847l-.088-.087c-.176-.264-20.659-32.528-40-41.495-11.604 12.044-30.154 21.538-37.89 24a2.356 2.356 0 0 1-.879.176c-.703 0-1.319-.264-1.846-.703-.792-.528-1.231-1.495-1.143-2.462 1.67-24.088 29.89-72.352 47.296-96.264-35.604 15.649-53.714 46.418-62.769 70.418-9.055 24.088-11.868 49.319-10.461 66.549 6.241-9.406 18.022-16.263 23.296-18.989-1.318-3.428-2.989-9.318-1.406-14.945a2.928 2.928 0 0 1 2.022-2.022c1.055-.351 2.11 0 2.901.704 3.516 3.604 15.472 10.109 26.198 12.307 1.23.264 2.813.528 4.659.791 12.571 2.11 37.714 6.154 49.67 26.462 2.55-2.989 5.539-5.275 7.385-6.593Zm-15.033-38.945c13.626-21.363 20.22-52.748 22.857-67.693-11.253 12.132-15.472 24-19.253 34.638-3.164 9.055-5.978 16.967-12.395 23.12 3.165 3.341 6.154 6.682 8.791 9.935Zm12.835-64.968C210.989 51.604 195.78 64 180.923 84.308c5.099 2.637 10.286 6.593 15.033 11.077 5.451-5.275 8-12.308 11.077-21.011 3.077-8.792 6.769-19.165 14.769-29.89ZM188.483 15.56c-16.703 22.418-42.109 66.286-46.681 90.022 8.616-3.78 22.769-11.956 31.649-21.538.615-2.813 1.846-7.648 3.516-14.154 4.044-15.385 10.374-39.472 11.516-54.33Zm-18.549 206.594c-21.363 5.362-30.857 21.187-35.077 34.637 4.22 17.319 10.989 35.517 21.802 52.835-1.406-7.736-2.725-17.758-3.077-28.659-.879-25.934 4.836-46.066 16.352-58.813Zm71.385-1.758c-.352 3.076-.616 8.791.615 14.417 6.594-.879 19.341-4.571 22.857-8.615-9.934-5.187-19.253-5.802-23.472-5.802Z" clip-rule="evenodd"/>
  <path fill="#262626" d="M1358.74 161.563c10.85-17.858 26.45-26.787 46.79-26.787 21.03 0 35.04 8.816 42.05 26.448 2.49 6.556 3.73 14.129 3.73 22.719v72.563c0 3.165-1.13 5.538-3.39 7.12-2.04 1.583-4.3 2.374-6.78 2.374-2.72 0-5.2-.791-7.46-2.374-2.04-1.808-3.06-4.182-3.06-7.12v-73.92c0-10.398-2.93-18.536-8.81-24.414-5.43-4.973-12.43-7.459-21.02-7.459-17.18 0-28.83 7.007-34.93 21.023-2.49 5.199-3.73 11.528-3.73 18.988v65.782c0 3.165-1.13 5.538-3.39 7.12-2.03 1.583-4.3 2.374-6.78 2.374-2.71 0-5.2-.791-7.46-2.374-2.04-1.808-3.05-4.182-3.05-7.12v-73.92c0-10.398-2.83-18.536-8.48-24.414-5.43-4.973-11.64-7.459-18.65-7.459-7.01 0-12.77.791-17.29 2.373-4.52 1.583-8.59 4.182-12.21 7.799-7.23 7.234-11.08 17.406-11.53 30.517v65.104c0 3.165-1.13 5.538-3.39 7.12-2.26 1.583-4.63 2.374-7.12 2.374s-4.86-.791-7.12-2.374c-2.26-1.808-3.39-4.182-3.39-7.12V146.983c0-2.939 1.13-5.312 3.39-7.121 2.26-1.808 4.41-2.713 6.44-2.713 2.04 0 3.62.34 4.75 1.018 1.13.452 2.15 1.017 3.05 1.695 2.26 1.809 3.39 4.069 3.39 6.782v12.207c3.17-7.686 8.93-13.677 17.29-17.972 7.46-4.069 16.17-6.103 26.11-6.103 15.38 0 27.13 4.86 35.27 14.58 2.71 3.617 4.97 7.686 6.78 12.207Zm-145.45 94.943c0 3.164-1.24 5.538-3.73 7.12-2.26 1.583-4.29 2.374-6.1 2.374-1.58 0-3.05-.113-4.41-.339a7.116 7.116 0 0 1-3.39-2.374c-2.26-1.582-3.39-3.843-3.39-6.781v-11.868c-5.43 11.981-15.37 19.441-29.84 22.379-4.52 1.13-9.38 1.696-14.58 1.696-5.2 0-10.63-.905-16.28-2.713s-10.51-4.747-14.58-8.816c-9.04-8.59-13.56-21.475-13.56-38.655v-71.207c0-3.165 1.02-5.652 3.05-7.46 2.04-1.808 4.41-2.713 7.12-2.713s5.09.905 7.12 2.713c2.04 1.808 3.05 4.295 3.05 7.46v72.902c0 12.207 2.49 20.684 7.46 25.431 4.98 4.747 12.44 7.121 22.38 7.121 16.73 0 28.26-6.782 34.59-20.345 2.49-4.747 3.84-10.172 4.07-16.276v-68.833c0-3.165 1.13-5.652 3.39-7.46 2.26-1.808 4.75-2.713 7.46-2.713s5.09.905 7.12 2.713c2.03 1.808 3.05 4.295 3.05 7.46v109.184Zm-141.6-58.661c0 4.747-2.71 7.347-8.14 7.799h-92.905c.905 23.057 9.947 37.977 27.127 44.758 4.748 1.583 10.168 2.374 16.278 2.374 12.66 0 25.54-4.634 38.65-13.902 4.07-2.261 7.46-2.035 10.18.678 1.35 1.356 1.8 2.712 1.35 4.069 0 3.164-.79 5.425-2.37 6.781-12.43 12.433-28.82 18.537-49.17 18.311-18.535 0-33.455-5.991-44.757-17.972-12.659-12.433-18.989-28.821-18.989-49.166 0-18.763 5.199-34.247 15.598-46.454 10.851-13.564 26.222-20.345 46.118-20.345 19.89 0 35.04 5.99 45.43 17.971 9.95 10.851 15.15 25.883 15.6 45.098Zm-20-6.104c-.68-12.206-4.64-22.266-11.87-30.178-6.78-7.233-16.5-10.85-29.16-10.85-10.854 0-20.122 4.069-27.808 12.207-7.007 8.138-10.85 17.745-11.529 28.821h80.367Zm-165.874-32.89c5.425-16.05 17.293-24.075 35.603-24.075 3.391 0 5.878 1.017 7.46 3.052 1.808 1.808 2.713 3.843 2.713 6.103 0 2.035-.905 4.069-2.713 6.104-1.582 1.808-4.634 2.712-9.155 2.712-4.521 0-9.042.904-13.564 2.713-4.521 1.808-8.25 4.408-11.189 7.799-6.104 7.459-9.155 17.293-9.155 29.5v63.747c0 3.165-1.131 5.538-3.391 7.12-2.261 1.583-4.295 2.374-6.104 2.374-1.808 0-3.277-.113-4.408-.339-1.13-.452-2.26-1.243-3.39-2.374-2.035-1.356-3.052-3.616-3.052-6.781V147.322c0-2.939 1.017-5.312 3.052-7.121 2.034-2.034 4.521-3.052 7.459-3.052 3.165 0 5.539 1.018 7.121 3.052 1.808 1.809 2.713 4.182 2.713 7.121v11.529Zm-93.847 28.821c4.747 0 9.494.113 14.242.34v-10.851c0-17.632-9.834-26.448-29.5-26.448-8.817 0-15.259.791-19.328 2.373-7.234 2.713-12.433 5.086-15.598 7.121-3.165 1.808-5.651 2.713-7.46 2.713-1.808 0-3.503-.679-5.086-2.035-1.582-1.356-2.373-3.165-2.373-5.425 0-1.809 1.017-3.617 3.051-5.425 10.625-10.173 26.336-15.259 47.133-15.259 23.961 0 39.333 8.025 46.115 24.075 2.26 5.651 3.39 12.206 3.39 19.666l-.678 78.328c0 2.939-1.017 5.199-3.052 6.781-2.034 1.583-4.295 2.374-6.781 2.374-2.487 0-4.747-.678-6.782-2.034-2.034-1.357-3.051-3.617-3.051-6.782v-12.207c-5.426 11.755-15.146 19.102-29.161 22.04-4.295 1.131-9.156 1.696-14.581 1.696-5.425 0-10.85-.792-16.276-2.374-5.199-1.582-9.833-4.069-13.902-7.46-8.364-7.007-12.546-16.502-12.546-28.482 0-28.483 24.075-42.725 72.224-42.725Zm14.242 15.259c-3.617.452-7.799.678-12.546.678-4.748 0-9.608.113-14.581.339-4.973 0-9.72.565-14.241 1.696-4.521.904-8.59 2.373-12.207 4.408-7.686 4.069-11.755 10.737-12.207 20.005 0 7.234 2.939 12.886 8.816 16.955 4.521 3.616 10.964 5.538 19.328 5.764 10.172 0 18.988-3.278 26.448-9.833 6.781-6.33 10.511-15.824 11.19-28.483v-11.529Zm-135.954-20.345c0-10.398-2.939-18.536-8.816-24.414-5.199-4.973-11.303-7.459-18.31-7.459-6.782 0-12.546.791-17.293 2.373-4.748 1.583-8.93 4.182-12.546 7.799-7.686 7.234-11.529 17.519-11.529 30.856v64.765c0 3.165-1.13 5.538-3.391 7.12-2.26 1.583-4.747 2.374-7.46 2.374-2.712 0-4.973-.791-6.781-2.374-1.809-1.808-2.713-4.182-2.713-7.12V91.035c0-3.165 1.13-5.539 3.391-7.121 2.26-1.582 4.521-2.374 6.781-2.374 2.713 0 5.087.791 7.121 2.374 2.035 1.356 3.052 3.73 3.052 7.12v68.156c3.165-7.912 9.042-14.016 17.632-18.311 7.912-4.069 15.711-6.103 23.397-6.103 7.912 0 14.58 1.017 20.005 3.052 5.426 1.808 10.399 4.521 14.92 8.138 9.042 8.59 13.563 21.249 13.563 37.977v72.563c0 3.165-1.243 5.538-3.73 7.12-2.26 1.583-4.634 2.374-7.12 2.374-2.713 0-5.087-.791-7.121-2.374-2.035-1.808-3.052-4.182-3.052-7.12v-73.92Zm-226.108 2.713v69.511c0 5.426-2.486 8.929-7.459 10.512-1.357.452-3.052.678-5.087.678-2.034 0-4.295-.904-6.781-2.713-2.261-1.808-3.391-4.634-3.391-8.477V92.39c0-4.52 2.374-8.024 7.121-10.51 1.356-.679 2.938-1.018 4.747-1.018h46.115c38.429 0 61.825 11.755 70.189 35.264 2.035 5.426 3.052 11.19 3.052 17.294 0 6.103-.904 11.754-2.712 16.954-1.809 5.199-4.409 9.833-7.799 13.902-3.391 4.069-7.46 7.347-12.207 9.833-4.747 2.487-9.834 4.634-15.259 6.443-10.624 3.164-22.718 4.747-36.281 4.747h-34.248Zm38.317-18.311c14.693 0 25.544-2.486 32.551-7.459 9.268-5.878 13.903-14.807 13.903-26.788 0-11.528-4.635-20.231-13.903-26.109-7.007-4.521-17.745-7.008-32.212-7.46h-38.656v67.816h38.317Z"/>
  <defs>
    <linearGradient id="a" x1="-163.982" x2="164.021" y1="164.025" y2="-163.979" gradientUnits="userSpaceOnUse">
      <stop stop-color="#EA5B0C"/>
      <stop offset="1" stop-color="#F9B233"/>
    </linearGradient>
  </defs>
</svg>
